<svg xmlns="http://www.w3.org/2000/svg" width="40" height="40" viewBox="0 0 40 40" fill="none">
  <!-- Outer Circle with Stroke -->
  <g transform="translate(5, 5)">
    <circle cx="15" cy="15" r="14.5" stroke="#FB4E2B"/>
  </g>
  
  <!-- Filled Circle -->
  <g transform="translate(6, 6)">
    <circle cx="14" cy="14" r="10" fill="#FB4E2B"/>
  </g>
  
  <!-- Cross -->
  <g transform="translate(16, 16)">
    <mask id="path-1-inside-1_585_687" fill="white">
      <path d="M0.0902554 0.524424C-0.0297096 0.404455 -0.0297097 0.209946 0.0902553 0.0899769C0.21022 -0.0299923 0.404722 -0.0299923 0.524687 0.0899769L7.91003 7.47558C8.02999 7.59554 8.02999 7.79005 7.91003 7.91002C7.79006 8.02999 7.59556 8.02999 7.47559 7.91002L0.0902554 0.524424Z"/>
      <path d="M7.90974 0.524424C8.02971 0.404455 8.02971 0.209946 7.90974 0.0899769C7.78978 -0.0299923 7.59528 -0.0299923 7.47531 0.0899769L0.0899738 7.47558C-0.0299912 7.59554 -0.0299913 7.79005 0.0899737 7.91002C0.209939 8.02999 0.40444 8.02999 0.524405 7.91002L7.90974 0.524424Z"/>
    </mask>
    <path d="M0.0902554 0.524424C-0.0297096 0.404455 -0.0297097 0.209946 0.0902553 0.0899769C0.21022 -0.0299923 0.404722 -0.0299923 0.524687 0.0899769L7.91003 7.47558C8.02999 7.59554 8.02999 7.79005 7.91003 7.91002C7.79006 8.02999 7.59556 8.02999 7.47559 7.91002L0.0902554 0.524424Z" fill="white"/>
    <path d="M7.90974 0.524424C8.02971 0.404455 8.02971 0.209946 7.90974 0.0899769C7.78978 -0.0299923 7.59528 -0.0299923 7.47531 0.0899769L0.0899738 7.47558C-0.0299912 7.59554 -0.0299913 7.79005 0.0899737 7.91002C0.209939 8.02999 0.40444 8.02999 0.524405 7.91002L7.90974 0.524424Z" fill="white"/>
  </g>
</svg>