<svg width="129" height="28" viewBox="0 0 129 28" fill="none" xmlns="http://www.w3.org/2000/svg">
<g id="Turnkey Logo" clip-path="url(#clip0_612_31)">
<path id="Vector" fill-rule="evenodd" clip-rule="evenodd" d="M78.6563 0.365234H78.9092H81.5542H81.8073V0.620025V14.1104V17.3445V21.3397V21.5945H81.5542H78.9092H78.6563V21.3397V0.620025V0.365234ZM27.2382 18.7085V7.56568H30.5918V4.66954H26.9649C27.1785 4.40108 27.3491 4.10081 27.4711 3.77948C27.6987 3.19686 27.8201 2.45117 27.8084 1.44899V0.365305H24.772V1.48636C24.7922 2.12265 24.6644 2.75489 24.3992 3.33275C24.0027 4.15147 23.1576 5.05683 21.3207 5.49166L21.125 5.53923V7.56568H24.0568V19.4695C24.0586 20.0326 24.2813 20.5723 24.6766 20.9708C25.072 21.369 25.6077 21.5939 26.1671 21.5961H30.6407V18.7085H27.24H27.2382ZM53.115 7.48075C54.3397 5.72098 55.9659 4.69162 57.9328 4.69162H59.5049V7.76951H57.5871C56.2443 7.76951 55.1646 8.20946 54.4004 9.1369C53.6362 10.0643 53.1792 11.5115 53.1792 13.5719V21.5961H49.964V4.69162H53.115V7.48075ZM121.712 4.69162H124.787L125.152 4.70351L125.019 5.04323L116.989 26.004L116.793 25.9276L116.817 25.9378L116.986 26.004C116.758 26.5466 116.381 27.0115 115.897 27.343C115.414 27.6744 114.846 27.8582 114.261 27.8725H110.702V25.0155H114.152L115.596 21.3379L109.302 5.03134L109.169 4.69162H112.711L112.772 4.86148L117.2 17.3157L121.653 4.86148L121.712 4.69162ZM43.5757 4.69162H43.8288H46.7573V21.6012H43.7327V19.5154C42.5383 21.1902 40.7822 21.9818 38.6315 21.9818C36.4418 21.9818 34.9456 21.3363 34.0279 20.2119C33.1102 19.0873 32.7729 17.5178 32.7729 15.7326V4.69162H35.9561V16.0434C35.9561 16.9878 36.2512 17.7437 36.7675 18.2618C37.2836 18.7799 38.041 19.0873 39.0093 19.0873C40.5715 19.0873 41.6983 18.5658 42.4455 17.7097C43.1928 16.8537 43.5757 15.6358 43.5757 14.2038V4.69162ZM101.121 4.31108C98.7403 4.31108 96.7784 5.19435 95.4155 6.75707C94.0525 8.31979 93.3085 10.528 93.3085 13.1591C93.3085 15.7903 94.0795 18.0137 95.4643 19.5612C96.8493 21.1087 98.8381 21.9765 101.215 21.9765C103.106 21.9765 104.73 21.4296 106.001 20.4223C107.271 19.4151 108.17 17.9628 108.639 16.1758L108.723 15.8548H105.446L105.385 16.0247C104.663 18.0273 103.177 19.1229 101.215 19.1229C99.8046 19.1229 98.7183 18.5896 97.9457 17.6961C97.2154 16.8468 96.7565 15.668 96.5878 14.2734H108.747L108.772 14.0475C108.799 13.7533 108.81 13.4579 108.804 13.1625C108.804 10.5348 108.092 8.32147 106.765 6.76216C105.437 5.20283 103.501 4.31108 101.121 4.31108ZM96.6991 11.3501C96.9236 10.1611 97.3891 9.13004 98.079 8.39622C98.4696 7.98421 98.9416 7.65916 99.4645 7.44206C99.9875 7.22499 100.55 7.12067 101.115 7.13586C101.654 7.12238 102.189 7.22019 102.688 7.42324C103.187 7.62631 103.639 7.93028 104.017 8.31638C104.709 9.02809 105.198 10.0558 105.441 11.3501H96.6991ZM69.9299 4.31108C67.7792 4.31108 66.0232 5.10263 64.8289 6.77746V4.69156H61.8043V21.5961H64.9857V12.0839C64.9857 10.652 65.3685 9.43407 66.116 8.57627C66.8632 7.71848 67.9901 7.2004 69.5521 7.2004C70.5203 7.2004 71.2779 7.50785 71.794 8.02592C72.3102 8.54401 72.6053 9.29986 72.6053 10.2443V21.5979H75.7884V10.5569C75.7884 8.77333 75.4511 7.20381 74.5334 6.07934C73.6158 4.95486 72.1195 4.31108 69.9299 4.31108ZM94.2587 4.73522L85.9025 13.1537L94.2528 21.5677L90.036 21.5587L83.9355 15.4127C83.3413 14.8137 83.0073 14.0014 83.0073 13.1544C83.0073 12.3075 83.3413 11.4952 83.9355 10.8962L90.0508 4.73522H94.2587Z" fill="#17191D"/>
<g id="Group">
<path id="Vector_2" d="M7.70047 10.1249L13.2487 22.3764H0.871094L6.41932 10.1249C6.47566 10.0014 6.56593 9.89669 6.67947 9.82332C6.79301 9.74994 6.92505 9.71094 7.05989 9.71094C7.19475 9.71094 7.32677 9.74994 7.4403 9.82332C7.55384 9.89669 7.64413 10.0014 7.70047 10.1249Z" fill="#17191D"/>
<path id="Vector_3" d="M7.05793 8.22652C9.21061 8.22652 10.9557 6.46671 10.9557 4.29589C10.9557 2.12505 9.21061 0.365234 7.05793 0.365234C4.90524 0.365234 3.16016 2.12505 3.16016 4.29589C3.16016 6.46671 4.90524 8.22652 7.05793 8.22652Z" fill="#17191D"/>
</g>
</g>
<defs>
<clipPath id="clip0_612_31">
<rect width="127.622" height="27.6216" fill="white" transform="translate(0.871094 0.365234)"/>
</clipPath>
</defs>
</svg>
